<mxfile host="app.diagrams.net" modified="2024-01-16T19:43:14.378Z" agent="Mozilla/5.0 (Macintosh; Intel Mac OS X 10_15_7) AppleWebKit/537.36 (KHTML, like Gecko) Chrome/120.0.0.0 Safari/537.36" etag="jLYc8eKIRoxXgN0nDLuF" version="22.1.19" type="github">
  <diagram name="Page-1" id="DjqUwsOs9sBg7zB_Vn4k">
    <mxGraphModel dx="786" dy="581" grid="1" gridSize="10" guides="1" tooltips="1" connect="1" arrows="1" fold="1" page="1" pageScale="1" pageWidth="850" pageHeight="1100" math="0" shadow="0">
      <root>
        <mxCell id="0" />
        <mxCell id="1" parent="0" />
        <mxCell id="RxfKCgTg0c1xsMPH4tG4-1" value="sdfsadfa" style="rounded=0;whiteSpace=wrap;html=1;" vertex="1" parent="1">
          <mxGeometry x="220" y="240" width="120" height="60" as="geometry" />
        </mxCell>
      </root>
    </mxGraphModel>
  </diagram>
</mxfile>
